<?xml version="1.0" encoding="utf-8"?>
<!-- Generator: Adobe Illustrator 24.2.1, SVG Export Plug-In . SVG Version: 6.00 Build 0)  -->
<svg version="1.1" id="Camada_1" xmlns="http://www.w3.org/2000/svg" xmlns:xlink="http://www.w3.org/1999/xlink" x="0px" y="0px"
	 viewBox="0 0 881.1 281.4" style="enable-background:new 0 0 881.1 281.4;" xml:space="preserve">
<style type="text/css">
	.st0{fill:url(#SVGID_1_);}
	.st1{clip-path:url(#SVGID_3_);}
	.st2{fill:#FFFFFF;}
</style>
<linearGradient id="SVGID_1_" gradientUnits="userSpaceOnUse" x1="270.6012" y1="183.7628" x2="8.4412" y2="13.3128" gradientTransform="matrix(1 0 0 -1 0 280.94)">
	<stop  offset="0" style="stop-color:#1CFAD5"/>
	<stop  offset="0.34" style="stop-color:#06B3F5"/>
	<stop  offset="0.66" style="stop-color:#7965E7"/>
	<stop  offset="1" style="stop-color:#FB358C"/>
</linearGradient>
<path class="st0" d="M270.1,164.2l-33,0.3H160l38.7-88.6l22.5,51.2l16.6-37.4L198.5,0l-71.9,164.5H84L155.7,0.3l-33-0.2L51,164.5
	l0,0l-13.1,29.9l0,0L0,281.3h32.9l38-86.9h42.6l-38.1,87l209.2-0.1l18.3-41.6L270.1,164.2z M265.1,251.5H121.9l24.9-57.1h103.4
	l19.9,45.3L265.1,251.5z"/>
<g>
	<g>
		<defs>
			<polygon id="SVGID_2_" points="119.2,257.9 85.8,257.9 113.5,194.4 146.9,194.4 			"/>
		</defs>
		<clipPath id="SVGID_3_">
			<use xlink:href="#SVGID_2_"  style="overflow:visible;"/>
		</clipPath>
		<g class="st1">
			
				<image style="overflow:visible;enable-background:new    ;" width="174" height="109" xlink:href="51953D0D.png"  transform="matrix(1 0 0 1 49.12 129.47)">
			</image>
		</g>
	</g>
</g>
<path class="st2" d="M363.1,28.7h15.5v40.4h43.3V28.7h15.6v93.8h-15.6v-40h-43.3v40h-15.4V28.7z"/>
<path class="st2" d="M509.1,55.9c5.4,3.7,8.1,9.7,8,17.9v33.8c0,6.4-2.8,10.8-8.4,13.3c-5.6,2.5-13.6,3.7-24,3.7
	c-8.4,0-15.2-1.7-20.7-5.2s-8.2-9.3-8.2-17.4c0-7.7,2.2-13.5,6.7-17.3c4.5-3.8,10.8-5.8,18.9-5.8c8.4,0,15.5,1.7,21.1,5.1v-6.8
	c0-9.6-5.8-14.3-17.3-14.4c-4.2,0-8.4,0.7-12.4,1.9c-3.7,1.1-7.2,2.9-10.3,5.3V56.3c2.6-1.7,6.4-3.1,11.5-4.2
	c5.1-1.1,10.3-1.7,15.5-1.7C497.3,50.4,503.8,52.2,509.1,55.9z M498.8,111.9c2.3-0.6,3.8-2.7,3.7-5.1V93.1c-5-2.1-10.3-3.2-15.8-3.1
	c-5.3,0-9.4,0.9-12.2,2.8s-4.2,4.7-4.2,8.4c-0.2,3.6,1.6,7,4.7,8.9c3.4,2,7.2,3.1,11.2,3C492.2,113.1,496.4,112.7,498.8,111.9z"/>
<path class="st2" d="M544.3,115.4c-6.6-5.7-9.9-14.9-9.9-27.7c0-13.1,3.3-22.6,9.8-28.5c6.5-5.9,14.8-8.8,24.8-8.8
	c7.4,0,14.8,1.4,21.7,4.2v13.2c-7.1-3-13.6-4.5-19.5-4.5c-7.4,0-12.9,1.9-16.6,5.6s-5.5,9.6-5.5,17.7c0,8.4,1.8,14.6,5.3,18.5
	s9.3,5.8,17.2,5.8c6.7-0.1,13.3-1.7,19.3-4.6v13.2c-6.8,3-14.2,4.6-21.7,4.5C559.2,124,550.9,121.1,544.3,115.4z"/>
<path class="st2" d="M650.9,122.6l-28.4-31.6v31.6h-14.6V25.2h14.8l-0.1,53.2l25.7-26.4h18.2l-32.1,30.7l35.7,40L650.9,122.6z"/>
<path class="st2" d="M684.4,27.3h15.8v13.4h-15.8V27.3z M684.8,52.3h14.8l0.2,70.2h-14.9V52.3z"/>
<path class="st2" d="M736.3,52.5c5.7-1.3,11.5-2,17.4-2c9.8,0,17.1,2.1,21.8,6.2c4.7,4.1,7,10.6,7,19.3v46.7h-14.7V77.8
	c0-9.8-5.6-14.8-16.7-14.8c-5.2,0-10.4,0.9-15.3,2.7v56.8h-14.8V57.7C725.8,55.3,731,53.6,736.3,52.5z"/>
<path class="st2" d="M856.6,55c5,2.7,8,8,7.8,13.6v56c0,8.1-2.6,14.6-7.9,19.7c-5.3,5.1-13.6,7.6-25,7.6c-7.8,0.1-15.5-1.2-22.8-3.8
	v-13.5c6.9,2.7,14.2,4.2,21.7,4.4c7.5,0,12.6-1.3,15.3-4c2.8-2.8,4.3-6.7,4.1-10.6v-4.8c-2.8,1.5-5.8,2.8-8.9,3.6
	c-3.1,0.9-6.3,1.4-9.5,1.4c-10.3-0.2-18.2-3.3-23.6-9.4c-5.4-6.1-8.1-14.8-8.1-26c0-14.6,3.4-24.8,10.1-30.4
	c6.8-5.6,15.8-8.4,27-8.4C844.8,50.4,851.4,51.9,856.6,55z M819.5,106.2c3.2,4.3,7.9,6.4,14.2,6.4c5.6,0.1,11.1-1.3,16-4.1v-37
	c0-3.3-1.2-5.5-3.7-6.8c-3.2-1.3-6.6-2-10-1.8c-8,0-13.5,2.3-16.6,6.9s-4.6,10.9-4.7,19C814.7,96.1,816.4,101.9,819.5,106.2z"/>
<path class="st2" d="M373.5,242.5c-7.6-8.1-11.4-20.3-11.4-36.6s3.8-28.5,11.4-36.4c7.6-8,18.6-12,32.9-12
	c10.8-0.1,21.5,2.1,31.4,6.5v14.9c-5-2.4-10.2-4.5-15.5-6.3c-4.5-1.4-9.2-2.1-13.9-2.1c-10.4,0-18.1,2.8-23.1,8.4
	c-5,5.6-7.5,14.6-7.5,27c0,12.4,2.5,21.4,7.5,27s12.6,8.4,22.7,8.4c6.1,0.1,12.1-0.9,17.9-2.9v-22.3h-19.7v-13.2h35.2v43
	c-10.7,5.7-22.6,8.6-34.7,8.6C392.1,254.5,381.1,250.5,373.5,242.5z"/>
<path class="st2" d="M462.8,188.7c2.6-1.6,7.1-3.3,13.4-5.2c6.1-1.8,12.4-2.8,18.7-2.8c3.3-0.1,6.5,0.5,9.6,1.8v11.8
	c-3.1-0.4-6.3-0.6-9.4-0.6c-5.8,0-11.7,0.4-17.4,1.4v57.7h-14.8V188.7z"/>
<path class="st2" d="M519.8,245.4c-5.7-6.4-8.5-15.7-8.5-27.9c0-24.7,11.3-37,33.8-37c11.3,0,19.9,3.2,25.6,9.5s8.6,15.5,8.6,27.5
	c0,12-3,21.2-8.9,27.7c-5.9,6.5-14.3,9.7-25.2,9.7C534,255,525.5,251.8,519.8,245.4z M564.5,217.5c0-8.2-1.5-14.4-4.6-18.5
	c-3.1-4.1-8-6.1-14.8-6.1c-6.9,0-11.8,2.1-14.7,6.3c-3,4.2-4.4,10.3-4.4,18.4c0,8.1,1.5,14.2,4.6,18.5s7.9,6.4,14.6,6.4
	C558.1,242.5,564.5,234.2,564.5,217.5L564.5,217.5z"/>
<path class="st2" d="M691.5,182.2L668,252.9H654l-15.2-50.2l-15,50.2h-14l-23.5-70.6h15.8l15.8,53.2l14.9-53.2H645l15.3,53.5
	l16-53.5H691.5z"/>
<path class="st2" d="M716.1,249.5c-3.7-3.5-5.5-8.4-5.5-14.8v-40.2h-11.4v-12.2h11.4v-19.7h15.2v19.7H743v12.2h-17.2v37.3
	c0,3.5,0.6,6,1.8,7.5c1.2,1.5,3.4,2.3,6.5,2.3c1.6,0,3.2-0.2,4.7-0.6c1.5-0.3,2.8-0.9,4.2-1.6v13.1c-3.7,1.6-7.7,2.3-11.7,2.3
	C724.9,254.7,719.8,252.9,716.1,249.5z"/>
<path class="st2" d="M822.5,209.1v43.8h-14.8v-41.9c0-5.7-1.4-10.1-4.1-13.1c-2.7-3-6.8-4.5-12.1-4.5c-5.8,0-11.6,1.6-16.6,4.6
	l-0.1,54.9h-14.6V152.4H775v34.1c6.3-3.7,13.5-5.6,20.8-5.8C813.6,180.7,822.5,190.2,822.5,209.1z"/>
</svg>
