<?xml version="1.0" encoding="utf-8"?>
<!-- Generator: Adobe Illustrator 24.2.3, SVG Export Plug-In . SVG Version: 6.00 Build 0)  -->
<svg version="1.1" id="Camada_1" xmlns="http://www.w3.org/2000/svg" xmlns:xlink="http://www.w3.org/1999/xlink" x="0px" y="0px"
	 viewBox="0 0 155.54 155.54" style="enable-background:new 0 0 155.54 155.54;" xml:space="preserve">
<style type="text/css">
	.st0{fill:#FFFFFF;}
</style>
<g>
	<path class="st0" d="M132.76,0H22.78C10.22,0,0,10.22,0,22.78v109.97c0,12.56,10.22,22.78,22.78,22.78h109.97
		c12.56,0,22.78-10.22,22.78-22.78V22.78C155.54,10.22,145.32,0,132.76,0z M78.08,118.48c-22.62,0-41.01-18.4-41.01-41.01
		s18.4-41.01,41.01-41.01s41.01,18.4,41.01,41.01S100.69,118.48,78.08,118.48z M123.65,45.57c-7.54,0-13.67-6.13-13.67-13.67
		s6.13-13.67,13.67-13.67s13.67,6.13,13.67,13.67S131.18,45.57,123.65,45.57z"/>
	<path class="st0" d="M123.65,27.34c-2.51,0-4.56,2.04-4.56,4.56s2.04,4.56,4.56,4.56s4.56-2.04,4.56-4.56
		S126.16,27.34,123.65,27.34z"/>
	<path class="st0" d="M78.08,45.57c-17.59,0-31.9,14.31-31.9,31.9s14.31,31.9,31.9,31.9s31.9-14.31,31.9-31.9
		S95.66,45.57,78.08,45.57z"/>
</g>
</svg>
