<?xml version="1.0" encoding="utf-8"?>
<!-- Generator: Adobe Illustrator 24.2.3, SVG Export Plug-In . SVG Version: 6.00 Build 0)  -->
<svg version="1.1" id="Camada_1" xmlns="http://www.w3.org/2000/svg" xmlns:xlink="http://www.w3.org/1999/xlink" x="0px" y="0px"
	 viewBox="0 0 155.54 155.54" style="enable-background:new 0 0 155.54 155.54;" xml:space="preserve">
<style type="text/css">
	.st0{fill:#FFFFFF;}
</style>
<g>
	<path class="st0" d="M132.76,0H22.78C10.22,0,0,10.22,0,22.78v109.97c0,12.56,10.22,22.78,22.78,22.78h109.97
		c12.56,0,22.78-10.22,22.78-22.78V22.78C155.54,10.22,145.32,0,132.76,0z M54.99,123.34H36.76v-63.8h18.23
		C54.99,59.54,54.99,123.34,54.99,123.34z M54.99,50.43H36.76V32.2h18.23C54.99,32.2,54.99,50.43,54.99,50.43z M118.78,123.34
		h-18.23V86.89c0-5.02-4.09-9.11-9.11-9.11c-5.02,0-9.11,4.09-9.11,9.11v36.46H64.1v-63.8h18.23v3.44
		c4.78-1.48,7.88-3.44,13.67-3.44c12.36,0.01,22.78,11.1,22.78,24.21V123.34z"/>
</g>
</svg>
