<?xml version="1.0" encoding="utf-8"?>
<!-- Generator: Adobe Illustrator 24.2.3, SVG Export Plug-In . SVG Version: 6.00 Build 0)  -->
<svg version="1.1" id="Camada_1" xmlns="http://www.w3.org/2000/svg" xmlns:xlink="http://www.w3.org/1999/xlink" x="0px" y="0px"
	 viewBox="0 0 400.25 98.6" style="enable-background:new 0 0 400.25 98.6;" xml:space="preserve">
<style type="text/css">
	.st0{fill:none;stroke:#000000;stroke-width:7.9848;stroke-miterlimit:10;}
	.st1{fill:#D1D1D1;}
</style>
<g>
	<path class="st0" d="M214.62,50.67"/>
	<g>
		<path class="st1" d="M243.67,49.91c0,13.97,0,27.95,0,41.93c0,3.72-0.05,3.74-3.84,3.75c-3,0.01-6.01,0.01-9.01,0
			c-3.82-0.01-3.83-0.01-3.83-3.71c-0.01-9.89,0.02-19.78-0.03-29.68c0-1.12,0.67-2.7-1.31-3.06c-1.89-0.34-2.52,0.86-3.06,2.35
			c-3.79,10.4-7.68,20.77-11.41,31.19c-0.75,2.1-1.77,3.07-4.12,2.95c-3.99-0.18-8.02-0.15-12.01-0.01c-2.49,0.08-2.73-0.79-1.9-2.9
			c4.2-10.83,8.24-21.72,12.48-32.53c0.95-2.42,1.05-3.84-1.61-5.41c-5.35-3.15-6.67-8.67-6.87-14.35
			c-0.24-6.79-0.57-13.6,0.32-20.38c0.99-7.54,5.13-12.42,12.47-14.54c2.98-0.87,6.03-1.3,9.16-1.29c6.92,0.05,13.84,0,20.76,0.01
			c3.81,0,3.83,0.01,3.83,3.74C243.67,21.97,243.67,35.94,243.67,49.91z M226.97,31.83c0-2.99,0.05-5.99-0.01-8.98
			c-0.1-6.41,1.13-5.73-5.82-5.69c-4.89,0.02-7.37,2.52-7.46,7.41c-0.07,3.72-0.02,7.44-0.02,11.16c0,8.92,2.08,10.85,11,10.52
			c1.81-0.07,2.37-0.73,2.34-2.44C226.91,39.81,226.96,35.82,226.97,31.83z"/>
		<path class="st1" d="M9.4,73.2c0-7.16,0.09-14.34-0.05-21.5c-0.05-2.57,0.91-3.35,3.35-3.25c3.27,0.14,6.56,0.02,9.83,0.03
			c3.51,0.01,3.58,0.08,3.58,3.74c0.01,9.89,0.07,19.78-0.05,29.67c-0.02,2.36,0.67,3.15,3.09,3.14
			c8.52-0.01,10.27-1.63,10.27-10.11c0-7.71,0.08-15.43-0.05-23.14c-0.03-2.42,0.64-3.47,3.22-3.35c3.64,0.17,7.28,0.08,10.93,0.03
			c1.71-0.02,2.53,0.67,2.51,2.41c-0.16,9.97,0.59,19.97-0.37,29.92c-0.99,10.32-6.9,15.89-17.32,16.95
			c-8.81,0.9-17.65,0.27-26.46,0.46c-2.14,0.05-2.53-1.12-2.52-2.94C9.43,87.9,9.4,80.55,9.4,73.2z"/>
		<path class="st1" d="M327.03,64.24c0-5.18,0.06-10.35-0.02-15.52c-0.03-1.88,0.67-2.58,2.56-2.53c3.73,0.09,7.47,0.13,11.2-0.01
			c2.29-0.08,3.01,0.81,2.99,3.01c-0.08,9.08-0.06,18.15-0.01,27.23c0.02,5.33,3.84,8.06,8.98,6.52c3.01-0.9,4.37-2.85,4.38-6.68
			c0.05-8.81,0.01-17.61,0.02-26.42c0-3.62,0.02-3.62,3.64-3.63c3.55-0.01,7.11,0.01,10.65,0c1.3,0,2.41,0.18,2.4,1.85
			c-0.13,10.88,0.83,21.82-0.43,32.64c-1.1,9.4-7.14,14.34-17.67,15.31c-5.24,0.48-10.55,0.58-15.73-0.89
			c-8.35-2.36-12.82-8.08-12.92-16.71C326.98,73.69,327.02,68.96,327.03,64.24z"/>
		<path class="st1" d="M108.87,48.48c0.73,0,1.47-0.09,2.18,0.01c3.5,0.5,7.37-1.36,10.53,1.31c6.07,5.14,11.97,10.43,13.29,18.94
			c0.68,4.43,0.8,8.86,0.51,13.29c-0.5,8.04-5.28,13.6-13.3,15.58c-6.27,1.55-12.6,1.63-18.92,0.22
			c-9.21-2.05-14.09-7.86-14.38-17.26c-0.15-4.53,0.01-9.07-0.06-13.61c-0.03-1.94,0.67-2.81,2.7-2.76
			c3.82,0.09,7.64,0.08,11.46,0.01c1.93-0.03,2.56,0.82,2.52,2.62c-0.06,4.08-0.06,8.17,0,12.25c0.06,4.45,2.33,6.55,6.89,6.49
			c4.44-0.06,6.22-2.06,6.54-6.55c0.46-6.41-1.81-11.43-6.67-15.58c-4.84-4.13-9.47-8.5-14.17-12.78c-0.49-0.44-1.41-0.8-0.97-1.7
			c0.33-0.66,1.12-0.48,1.73-0.48C102.13,48.47,105.5,48.48,108.87,48.48z"/>
		<path class="st1" d="M27.67,4.25c4.36,0.23,9.63-0.34,14.9,0.54c9.83,1.64,15.66,8.17,15.79,18.14
			c0.09,6.98-0.05,13.97,0.06,20.97c0.03,2.18-0.65,3.17-2.94,3.1c-3.64-0.1-7.29-0.09-10.93,0c-2.12,0.05-2.89-0.81-2.86-2.91
			c0.08-6.35,0.05-12.71,0.02-19.06c-0.02-5.56-2.22-7.84-7.72-7.87c-5.84-0.03-5.24-0.56-5.26,5.26
			c-0.02,7.08-0.07,14.16,0.02,21.24c0.03,2.45-0.82,3.46-3.33,3.35c-3.64-0.14-7.29-0.08-10.93-0.02c-1.96,0.03-2.78-0.8-2.78-2.76
			c0.03-12.43,0.03-24.87,0-37.3c0-1.96,0.74-2.75,2.76-2.69C18.57,4.33,22.66,4.25,27.67,4.25z"/>
		<path class="st1" d="M376.06,29.77c0,3.81-0.1,7.63,0.03,11.44c0.08,2.29-0.56,3.33-3.06,3.21c-3.55-0.17-7.11-0.15-10.65,0
			c-2.34,0.09-2.99-0.94-2.98-3.07c0.06-6.9,0.07-13.8-0.05-20.69c-0.07-4.44-2.05-6.29-6.4-6.37c-4.64-0.09-6.92,2.03-6.97,6.72
			c-0.07,6.72-0.11,13.44,0.02,20.16c0.06,2.5-0.78,3.38-3.27,3.27c-3.64-0.17-7.29-0.05-10.93-0.05c-1.28,0-2.49-0.14-2.49-1.79
			c0.01-8.44-0.71-16.92,0.29-25.3c1.11-9.29,5.69-13.67,14.98-15.5c5.97-1.17,11.95-1.05,17.89,0.34
			c8.66,2.04,13.49,8.14,13.56,17.02C376.08,22.7,376.06,26.23,376.06,29.77z"/>
		<path class="st1" d="M110.54,46.96c-2.63,0-5.29-0.18-7.92,0.06c-2.92,0.26-4.79-0.94-6.38-3.22c-1.9-2.73-3.34-5.61-4.07-8.84
			c-1.22-5.37-1.2-10.86-0.58-16.24c0.95-8.29,6.32-13.07,16.16-14.67c4.76-0.78,9.63-0.79,14.4,0.11
			c10.51,1.97,15.08,7.02,15.83,17.69c0.32,4.52,0.08,9.07,0.14,13.6c0.02,1.73-0.75,2.43-2.48,2.41
			c-3.82-0.06-7.64-0.08-11.46,0.01c-1.98,0.05-2.78-0.7-2.74-2.7c0.09-3.81,0.07-7.62,0-11.43c-0.08-5.37-3.31-8.02-8.57-7.04
			c-2.42,0.46-4.35,1.72-4.69,4.3c-0.82,6.29-0.03,12.15,5.12,16.67c2.67,2.34,5.27,4.75,7.89,7.12c0.46,0.42,1.21,0.79,1.03,1.48
			c-0.25,0.89-1.17,0.7-1.87,0.7C117.1,46.97,113.82,46.96,110.54,46.96z"/>
		<path class="st1" d="M292.61,29.44c0-3.9-0.11-7.81,0.03-11.7c0.09-2.32-0.83-3.01-3.03-2.94c-3.64,0.11-7.29-0.06-10.93,0.06
			c-2.4,0.08-3.25-0.84-3.09-3.21c0.16-2.44,0.13-4.9,0.01-7.35c-0.09-2.04,0.79-2.71,2.74-2.7c7.02,0.06,14.02,0.01,21.03,0.01
			c7.93,0,15.84,0.06,23.77-0.03c2.3-0.02,3.38,0.63,3.19,3.09c-0.17,2.35-0.17,4.72,0,7.07c0.18,2.46-0.9,3.18-3.19,3.1
			c-3.46-0.11-6.94,0.14-10.38-0.08c-2.85-0.18-3.56,0.92-3.5,3.6c0.16,7.62-0.01,15.25,0.09,22.87c0.03,2.34-0.7,3.27-3.13,3.17
			c-3.64-0.16-7.29-0.1-10.93-0.01c-1.98,0.05-2.77-0.71-2.74-2.7C292.68,37.61,292.62,33.52,292.61,29.44z"/>
		<path class="st1" d="M175.41,32.2c0,3.9-0.09,7.81,0.03,11.71c0.07,2.19-0.65,3.16-2.94,3.09c-3.64-0.11-7.29-0.09-10.93-0.01
			c-2.1,0.05-2.91-0.76-2.9-2.89c0.08-7.72,0.03-15.43,0.02-23.16c0-3.8-0.01-3.8-3.7-3.81c-3.47-0.01-6.92-0.08-10.38,0.02
			c-2.04,0.06-3.05-0.58-2.94-2.78c0.13-2.53,0.08-5.09,0.02-7.63c-0.03-1.65,0.48-2.52,2.33-2.51c15.49,0.03,30.98,0.03,46.46,0
			c1.71,0,2.24,0.87,2.24,2.36c-0.01,2.73-0.02,5.45,0.01,8.17c0.02,1.75-0.81,2.4-2.53,2.37c-4.1-0.06-8.2,0.06-12.3-0.05
			c-1.92-0.05-2.56,0.68-2.52,2.56C175.48,23.84,175.41,28.01,175.41,32.2z"/>
		<path class="st1" d="M290.02,70.73c0-7.07,0.06-14.14-0.03-21.22c-0.03-2.35,0.59-3.49,3.24-3.35c3.72,0.21,7.46,0.11,11.19,0.02
			c1.9-0.05,2.6,0.75,2.6,2.57c-0.02,14.78-0.02,29.57,0,44.35c0,1.86-0.81,2.57-2.66,2.52c-3.82-0.08-7.64-0.1-11.46,0.01
			c-2.14,0.07-2.91-0.79-2.9-2.86C290.05,85.42,290.02,78.08,290.02,70.73z"/>
		<path class="st1" d="M65.13,73.29c0-7.16,0.08-14.34-0.05-21.5c-0.05-2.42,0.63-3.48,3.22-3.35c3.64,0.17,7.28,0.09,10.92,0.03
			c1.85-0.03,2.62,0.71,2.61,2.58c-0.03,14.87-0.03,29.76,0,44.64c0,1.94-0.91,2.53-2.68,2.52c-3.73-0.03-7.46-0.07-11.2,0.01
			c-2.08,0.05-2.9-0.72-2.87-2.87C65.19,87.99,65.13,80.64,65.13,73.29z"/>
		<path class="st1" d="M156.44,73.36c0-7.25,0.08-14.52-0.05-21.78c-0.05-2.38,0.76-3.24,3.15-3.15c3.55,0.14,7.1,0.1,10.65,0.01
			c2.03-0.05,2.98,0.6,2.98,2.79c-0.06,14.69-0.06,29.4,0,44.09c0.01,2.13-0.82,2.92-2.9,2.87c-3.64-0.08-7.29-0.1-10.92,0.01
			c-2.29,0.07-2.97-0.89-2.94-3.08C156.5,87.88,156.44,80.62,156.44,73.36z"/>
		<path class="st1" d="M252.66,70.75c0-7.08,0.11-14.17-0.06-21.25c-0.07-2.68,0.88-3.48,3.46-3.34c3.46,0.18,6.92,0.13,10.38,0.01
			c2.08-0.07,2.95,0.62,2.94,2.78c-0.06,14.62-0.05,29.24-0.01,43.86c0,1.89-0.58,2.85-2.66,2.81c-3.82-0.09-7.65-0.1-11.48,0
			c-2.11,0.06-2.62-0.91-2.6-2.81C252.71,85.46,252.67,78.1,252.66,70.75z"/>
		<path class="st1" d="M271.63,23.22c0,5.99-0.11,11.99,0.06,17.98c0.07,2.57-0.88,3.33-3.32,3.23c-3.55-0.15-7.11-0.1-10.65-0.01
			c-1.96,0.05-2.79-0.66-2.79-2.67c0.05-12.52,0.05-25.06,0.01-37.59c0-1.89,0.84-2.57,2.66-2.54c3.73,0.06,7.47,0.08,11.2-0.01
			c2.09-0.06,2.92,0.67,2.89,2.84C271.57,10.69,271.63,16.96,271.63,23.22z"/>
		<path class="st1" d="M84.1,25.57c0,6.17-0.07,12.34,0.03,18.51c0.03,2.12-0.73,2.94-2.84,2.9c-3.73-0.08-7.46-0.07-11.2,0
			c-1.98,0.03-2.73-0.79-2.73-2.77c0.05-12.43,0.05-24.86,0-37.29c-0.01-1.97,0.73-2.75,2.74-2.7c3.82,0.1,7.64,0.1,11.46,0
			c1.92-0.05,2.54,0.71,2.53,2.57C84.06,13.05,84.1,19.31,84.1,25.57z"/>
	</g>
</g>
</svg>
