<?xml version="1.0" encoding="utf-8"?>
<!-- Generator: Adobe Illustrator 24.2.3, SVG Export Plug-In . SVG Version: 6.00 Build 0)  -->
<svg version="1.1" id="Camada_1" xmlns="http://www.w3.org/2000/svg" xmlns:xlink="http://www.w3.org/1999/xlink" x="0px" y="0px"
	 viewBox="0 0 400.25 98.6" style="enable-background:new 0 0 400.25 98.6;" xml:space="preserve">
<style type="text/css">
	.st0{fill:none;stroke:#000000;stroke-width:8.7767;stroke-miterlimit:10;}
	.st1{fill:#D1D1D1;}
	.st2{fill:none;stroke:#D1D1D1;stroke-width:7.0924;stroke-miterlimit:10;}
	.st3{fill:#D1D1D1;stroke:#D1D1D1;stroke-width:1.4624;}
</style>
<g>
	<path class="st0" d="M214.82,70.05"/>
	<rect x="163.95" y="62.51" class="st1" width="18.81" height="7.52"/>
	<g>
		<polygon class="st1" points="141.92,58.93 141.92,42.28 149.62,40.66 149.62,58.93 		"/>
		<polygon class="st1" points="152.86,58.93 152.86,38.52 160.38,37.09 160.38,58.93 		"/>
		<rect x="163.95" y="35.08" class="st1" width="7.89" height="23.85"/>
		<polygon class="st1" points="174.89,38.15 174.89,58.93 182.76,58.93 182.76,39.59 		"/>
		<circle class="st2" cx="163.95" cy="52.56" r="34.52"/>
		<g>
			<path class="st1" d="M234.35,60.96h-10.83l-2.14,7.66h-4.05l8.6-30.62h6.33l8.51,30.62h-4.33L234.35,60.96z M224.55,57.26h8.78
				l-4.19-16.17h-0.31L224.55,57.26z"/>
			<path class="st1" d="M265.55,58.92c0,7.4-3.3,10.34-9.23,10.34h-0.49c-6.28,0-9.4-3.56-9.4-10.61V48.31
				c0-7.13,3.35-10.61,9.45-10.61h0.35c6.06,0,9.32,3.47,9.32,10.56v0.66h-3.92v-0.89c0-4.81-1.87-6.65-5.57-6.65
				c-3.7,0-5.44,1.83-5.44,6.6v10.87c0,4.68,1.74,6.68,5.44,6.68c3.7,0,5.57-1.96,5.57-6.51v-0.8h3.92V58.92L265.55,58.92z"/>
			<path class="st1" d="M287.65,60.96h-10.83l-2.14,7.66h-4.05l8.6-30.62h6.33l8.51,30.62h-4.33L287.65,60.96z M277.85,57.26h8.78
				l-4.19-16.17h-0.31L277.85,57.26z"/>
			<path class="st1" d="M299.8,38.32h8.78c6.73,0,10.29,3.25,10.29,10.16v9.8c0,7.4-3.47,10.34-10.21,10.34h-8.86V38.32z
				 M308.72,64.8c4.24,0,5.97-1.69,5.97-6.51v-9.8c0-4.59-1.78-6.33-6.02-6.33h-4.68V64.8H308.72z"/>
			<path class="st1" d="M326.76,38.32h18.89v3.87h-14.74v9.05h13.19v3.84h-13.19v9.67h14.74v3.87h-18.89V38.32z"/>
			<path class="st1" d="M351.81,38.32h6.42l3.96,16.54h0.18l3.96-16.54h6.42v30.3h-3.96V54.36l0.14-13.24h-0.31l-4.68,19.35h-3.52
				l-4.68-19.35h-0.31l0.14,13.24v14.26h-3.75L351.81,38.32L351.81,38.32z"/>
			<path class="st1" d="M391.02,57.52v11.1h-4.19V57.75l-9.23-19.43h4.64l6.65,14.62h0.26l6.73-14.62h4.36L391.02,57.52z"/>
		</g>
		<g>
			<path class="st3" d="M2.21,57.35V46.87c0-7.54,3.7-11.37,10.58-11.37h0.38c6.83,0,10.58,3.79,10.62,11.05H18.5
				c-0.05-4.45-1.83-6.13-5.38-6.13s-5.29,1.68-5.29,5.89v11.37c0,4.16,1.68,6.04,5.24,6.04c3.75,0,5.43-1.27,5.43-4.91V56.7h-5.15
				v-5.29h10.43v6.65c0,7.81-4.16,10.58-10.48,10.58h-0.61C5.67,68.63,2.21,64.7,2.21,57.35z"/>
			<path class="st3" d="M46.07,60.77H35.54l-1.83,7.21h-5.43l8.33-32.15h8.75l8.29,32.15h-5.81L46.07,60.77z M40.64,39.62
				l-3.89,16.29h8.1l-3.79-16.29H40.64z"/>
			<path class="st3" d="M57.34,36.15h8.24l3.27,16.51h0.19l3.32-16.51h8.19v31.82h-5.19V53l0.24-13.43h-0.46l-4.13,20.16h-4.45
				l-4.07-20.17h-0.46l0.19,13.48v14.93h-4.86V36.15z"/>
			<path class="st3" d="M102.04,60.77H91.51l-1.83,7.21h-5.43l8.33-32.15h8.75l8.29,32.15h-5.81L102.04,60.77z M96.61,39.62
				l-3.89,16.29h8.1l-3.79-16.29H96.61z"/>
		</g>
	</g>
</g>
</svg>
