<?xml version="1.0" encoding="utf-8"?>
<!-- Generator: Adobe Illustrator 24.2.3, SVG Export Plug-In . SVG Version: 6.00 Build 0)  -->
<svg version="1.1" id="Camada_1" xmlns="http://www.w3.org/2000/svg" xmlns:xlink="http://www.w3.org/1999/xlink" x="0px" y="0px"
	 viewBox="0 0 400.25 98.6" style="enable-background:new 0 0 400.25 98.6;" xml:space="preserve">
<style type="text/css">
	.st0{fill:#D1D1D1;}
</style>
<g>
	<g>
		<path class="st0" d="M36.45,49.96l-9.87-2.53c-1.99-0.45-3.94-1.06-5.84-1.81c-1.37-0.52-2.64-1.26-3.79-2.17
			c-0.88-0.7-1.59-1.61-2.05-2.65c-0.43-1.11-0.63-2.3-0.6-3.49c0-3.21,1.1-5.7,3.31-7.46s5.31-2.65,9.33-2.65
			c8.74,0,13.6,3.01,14.56,9.03c0.04,0.63,0.29,1.22,0.72,1.68c0.64,0.31,1.34,0.43,2.05,0.36h3.49c1.04,0,1.75-0.16,2.11-0.48
			c0.42-0.5,0.62-1.16,0.54-1.81c0.03-3.86-1.54-7.56-4.33-10.23c-3.77-4.01-9.87-6.02-18.29-6.02c-6.98,0-12.47,1.62-16.49,4.87
			S5.28,32.26,5.28,37.8v0.6c0,4.33,1.16,7.8,3.49,10.41c2.33,2.61,5.98,4.59,10.95,5.96l10.71,2.77c4.01,1.04,6.84,2.43,8.48,4.15
			c1.64,1.73,2.47,4.11,2.47,7.16c0,6.5-4.57,9.75-13.72,9.75c-4.57,0-8.02-0.72-10.35-2.17c-2.33-1.44-3.85-3.77-4.57-6.98
			c-0.04-0.64-0.32-1.24-0.78-1.68c-0.62-0.29-1.31-0.42-1.99-0.36H6.49c-1.05,0-1.75,0.16-2.11,0.48c-0.42,0.5-0.62,1.16-0.54,1.81
			c-0.02,4.04,1.68,7.89,4.69,10.59c4.17,3.93,10.63,5.9,19.38,5.9c15.33,0,22.99-6.02,22.99-18.05v-0.6
			C50.9,58.22,46.08,52.37,36.45,49.96z M65.44,20.95h-4.57c-0.7-0.07-1.4,0.09-2,0.47c-0.36,0.34-0.54,0.96-0.54,1.93v58.74
			c0,0.96,0.18,1.61,0.54,1.93c0.6,0.38,1.3,0.54,2,0.47h4.58c0.69,0.07,1.39-0.09,1.97-0.47c0.36-0.31,0.54-0.96,0.54-1.93V23.36
			c0-0.96-0.18-1.59-0.54-1.93C66.84,21.05,66.13,20.88,65.44,20.95z M107.01,20.95h-4.58c-0.69-0.07-1.39,0.1-1.97,0.47
			c-0.36,0.34-0.54,0.96-0.54,1.93v24.23h-21.4c-0.75,0-1.35,0.6-1.35,1.35v5.72c0,0.75,0.6,1.35,1.35,1.35h21.4v26.09
			c0,0.96,0.18,1.61,0.54,1.93c0.58,0.37,1.28,0.54,1.97,0.47h4.58c0.7,0.07,1.4-0.09,2-0.47c0.36-0.31,0.54-0.96,0.54-1.93V23.36
			c0-0.96-0.18-1.59-0.54-1.93C108.42,21.05,107.71,20.88,107.01,20.95L107.01,20.95z M262.86,20.95h-4.57
			c-0.7-0.07-1.4,0.1-1.99,0.48c-0.36,0.32-0.54,0.96-0.54,1.93v42.49c0,0,0.61,12.27-13.03,12.27c-0.64,0-1.2-0.04-1.81-0.07
			c-3.61-0.3-11.48-1.89-11.48-10.03V23.36c0-0.96-0.18-1.61-0.54-1.93c-0.59-0.39-1.29-0.55-1.99-0.48h-4.57
			c-0.7-0.07-1.4,0.1-1.99,0.48c-0.36,0.32-0.54,0.96-0.54,1.93v44.67c0,8.14-7.82,9.73-11.48,10.03c-0.6,0.03-1.2,0.07-1.81,0.07
			c-13.62,0-13-12.28-13-12.28v-42.5c0-0.96-0.18-1.61-0.54-1.93c-0.6-0.39-1.31-0.56-2.02-0.48h-4.57c-0.7-0.07-1.4,0.1-1.99,0.48
			c-0.36,0.32-0.54,0.96-0.54,1.93v42.49c0,7.06,1.76,12.14,5.3,15.22c3.53,3.09,9.31,4.63,17.33,4.63c4.74,0,8.67-0.6,11.79-1.81
			c2.33-0.88,4.48-2.2,6.32-3.89c1.84,1.68,3.98,3,6.32,3.89c3.13,1.2,7.06,1.81,11.79,1.81c8.02,0,13.8-1.55,17.33-4.63
			c3.53-3.09,5.3-8.17,5.3-15.22V23.36c0-0.96-0.18-1.61-0.54-1.93c-0.58-0.38-1.28-0.55-1.97-0.48H262.86z M318.35,25.03
			c-4.65-2.73-9.97-4.13-15.36-4.03c-4.09-0.02-8.13,0.79-11.88,2.41c-3.61,1.53-6.87,3.78-9.59,6.62
			c-2.78,2.95-4.94,6.43-6.35,10.23c-1.59,4.17-2.39,8.61-2.35,13.08c-0.04,4.51,0.78,8.98,2.41,13.18
			c1.47,3.83,3.71,7.31,6.58,10.23c2.84,2.84,6.23,5.07,9.96,6.55c8.8,3.44,18.63,3.14,27.21-0.83c3.66-1.78,6.94-4.27,9.63-7.33
			c0.24-0.28,0.36-0.65,0.32-1.02c-0.03-0.4-0.21-0.76-0.51-1.02l-4.81-4.13c-0.25-0.22-0.58-0.34-0.91-0.34
			c-0.43-0.01-0.84,0.16-1.13,0.47c-1.91,2.03-4.15,3.72-6.62,5.01c-3.21,1.61-6.77,2.43-10.36,2.37c-0.36,0-0.68,0-1.02,0
			c-3.66-0.09-7.23-1.13-10.37-3.01c-0.21-0.11-0.42-0.23-0.6-0.38c-0.35-0.23-0.7-0.5-1.1-0.79c-0.28-0.22-0.55-0.45-0.79-0.66
			c-0.24-0.17-0.47-0.36-0.69-0.57c-1.52-1.4-2.83-3.02-3.86-4.81c-0.23-0.39-0.44-0.73-0.64-1.14c-1.94-3.61-2.96-7.65-2.95-11.75
			c-0.01-3.85,0.84-7.64,2.48-11.12c1.2-2.8,3.03-5.28,5.34-7.27c1.57-1.38,3.37-2.49,5.32-3.26c0.61-0.26,1.23-0.49,1.87-0.67
			c0.32-0.12,0.64-0.21,0.97-0.27c0.28-0.08,0.6-0.13,0.98-0.2c0.31-0.09,0.64-0.14,0.97-0.15h0.02c1.01-0.17,2.03-0.25,3.06-0.23
			c5.02,0,9.24,1.61,12.54,4.81s5.42,7.48,6.27,12.82l0.05,0.34h-27.85c-0.8,0-1.44,0.64-1.44,1.44v5.34c0,0.8,0.64,1.44,1.44,1.44
			h36.71c0.43,0.01,0.81-0.31,0.87-0.74c0.12-1.1,0.18-2.2,0.18-3.3c0.1-5.59-1.14-11.12-3.61-16.13
			c-2.34-4.63-5.94-8.5-10.37-11.18L318.35,25.03z M395.58,36.18c-2.33-4.6-5.9-8.47-10.31-11.15c-4.65-2.73-9.97-4.13-15.36-4.03
			c-4.09-0.02-8.13,0.79-11.88,2.41c-3.61,1.53-6.87,3.78-9.59,6.62c-2.78,2.95-4.94,6.43-6.35,10.23
			c-1.59,4.17-2.39,8.6-2.35,13.07c-0.04,4.51,0.78,8.98,2.41,13.18c1.47,3.83,3.71,7.31,6.58,10.23c2.84,2.84,6.23,5.07,9.96,6.55
			c8.8,3.44,18.63,3.14,27.21-0.83c3.66-1.78,6.94-4.28,9.62-7.35c0.24-0.28,0.36-0.65,0.32-1.02c-0.03-0.4-0.21-0.76-0.51-1.02
			l-4.81-4.13c-0.25-0.22-0.58-0.34-0.91-0.34c-0.42,0.01-0.82,0.18-1.11,0.49c-1.92,2.04-4.18,3.73-6.67,5.01
			c-3.2,1.61-6.74,2.43-10.32,2.39c-0.36,0-0.68,0-1.02,0c-3.66-0.09-7.23-1.13-10.36-3.01c-0.21-0.11-0.42-0.24-0.6-0.39
			c-0.35-0.23-0.7-0.5-1.1-0.79c-0.28-0.22-0.55-0.45-0.81-0.67c-0.23-0.17-0.46-0.36-0.67-0.56c-1.52-1.4-2.83-3.02-3.86-4.81
			c-0.23-0.39-0.44-0.73-0.64-1.14c-1.94-3.61-2.96-7.65-2.95-11.75c-0.01-3.85,0.84-7.64,2.48-11.12c1.2-2.8,3.03-5.28,5.34-7.27
			c1.57-1.37,3.36-2.46,5.3-3.23c0.61-0.26,1.23-0.49,1.87-0.67c0.32-0.12,0.64-0.21,0.97-0.27c0.28-0.08,0.6-0.13,0.98-0.2
			c0.31-0.09,0.64-0.14,0.97-0.15h0.04c1.01-0.17,2.03-0.25,3.06-0.23c5.02,0,9.24,1.61,12.54,4.81s5.42,7.48,6.27,12.82l0.05,0.34
			h-27.85c-0.8,0-1.44,0.64-1.44,1.44l0,0v5.34c0,0.8,0.64,1.44,1.44,1.44l0,0h36.71c0.43,0.01,0.81-0.31,0.87-0.74
			c0.12-1.1,0.18-2.2,0.18-3.3C399.33,46.76,398.07,41.21,395.58,36.18z M172.82,35.62c-2.33-4.6-5.9-8.47-10.31-11.16
			c-4.66-2.73-9.97-4.13-15.37-4.04c-4.08-0.02-8.12,0.8-11.88,2.41c-3.61,1.53-6.88,3.78-9.59,6.62
			c-2.78,2.95-4.94,6.43-6.35,10.23c-1.6,4.18-2.4,8.61-2.35,13.08c-0.04,4.51,0.78,8.98,2.41,13.19c1.47,3.83,3.71,7.31,6.59,10.23
			c2.84,2.84,6.23,5.07,9.96,6.55c3.44,1.39,7.09,2.18,10.8,2.34h8.51c0.96,0,1.61-0.17,1.93-0.54c0.37-0.6,0.54-1.3,0.47-2v-4.21
			c0.07-0.69-0.1-1.39-0.47-1.98c-0.32-0.36-0.96-0.54-1.93-0.54h-8.52c-3.32-0.21-6.53-1.22-9.38-2.92
			c-0.22-0.11-0.42-0.24-0.6-0.4c-0.36-0.22-0.7-0.49-1.1-0.79c-0.28-0.22-0.56-0.45-0.81-0.67c-0.23-0.17-0.46-0.36-0.67-0.56
			c-1.53-1.4-2.83-3.02-3.86-4.81c-0.24-0.37-0.45-0.75-0.64-1.14c-1.95-3.61-2.97-7.65-2.96-11.75c0-3.85,0.84-7.64,2.48-11.12
			c1.2-2.8,3.03-5.28,5.34-7.27c1.58-1.36,3.38-2.44,5.32-3.2c0.6-0.27,1.23-0.49,1.86-0.68c0.32-0.11,0.65-0.2,0.98-0.26
			c0.32-0.08,0.65-0.15,0.98-0.2c0.32-0.1,0.65-0.16,0.98-0.16l0,0c1.01-0.16,2.03-0.24,3.06-0.23c5.03,0,9.25,1.61,12.55,4.81
			s5.42,7.48,6.26,12.82l0.05,0.34l0,0l0.26,5.2v29.93c0,0.96,0.18,1.61,0.54,1.93c0.6,0.38,1.3,0.54,2,0.47h4.58
			c0.69,0.07,1.39-0.09,1.97-0.47c0.36-0.31,0.54-0.96,0.54-1.93V52.77c0-0.12,0-0.22,0-0.34c0-0.22,0-0.44,0-0.67
			c0.1-5.59-1.14-11.13-3.62-16.14C172.83,35.62,172.82,35.62,172.82,35.62z"/>
	</g>
</g>
</svg>
