<?xml version="1.0" encoding="utf-8"?>
<!-- Generator: Adobe Illustrator 24.2.3, SVG Export Plug-In . SVG Version: 6.00 Build 0)  -->
<svg version="1.1" id="Camada_1" xmlns="http://www.w3.org/2000/svg" xmlns:xlink="http://www.w3.org/1999/xlink" x="0px" y="0px"
	 viewBox="0 0 400.25 98.6" style="enable-background:new 0 0 400.25 98.6;" xml:space="preserve">
<style type="text/css">
	.st0{fill:#D1D1D1;}
	.st1{fill:none;stroke:#D1D1D1;stroke-width:2.4152;stroke-linecap:round;stroke-miterlimit:10;}
</style>
<g>
	<circle class="st0" cx="140.13" cy="41.35" r="5.05"/>
	<path class="st0" d="M157.61,32.97c-1.01,1.91-2.68,4.54-5.27,7.2c-1.45,1.5-3.28,3.12-8.57,6.52c-7.51,4.85-7.7,4.11-10.72,6.42
		c-6.86,5.29-9.9,12.27-9.64,12.46c0.17,0.12,2-2.85,6.04-5.84c2.22-1.67,4.3-2.73,5.84-3.41c0,0-8.96,13.84-9.44,14.71
		c-0.48,0.87-9.97,20.6-11.5,25.43c3.89-4.88,3.67-9.71,17.82-25.34c1.96-0.97,3.6-1.26,3.79,2.34c0.77,5.27-0.87,20.17-1.35,22.03
		c-0.48,1.86,5.48-13.16,7.9-32.15c1.06-5.65,5.53-13.62,8.19-16.18c2.61-2.08,8.67-10.89,8.67-13.36l2.71-0.87l-2.2-7l-4.2,1.67
		L157.61,32.97z"/>
	<path class="st0" d="M130.15,48.43c-3.28-1.42-8.28-4.13-13.84-4.13c-4.06-0.02-8.77,1.26-13.6,4.66
		c-1.38,0.97-6.26,4.71-7.12,10.87c-0.19,1.33-0.7,5.12,1.59,8.12c0.19,0.27,1.09,1.4,2.75,2.32c5.39,2.95,10.46-1.04,13.89,1.86
		c0.97,0.82,1.76,2.17,1.69,3.5c-0.17,2.68-3.79,4.23-4.78,4.66c-4.01,1.71-7.85,0.48-8.94,0.12c-2.54-0.85-4.25-2.25-5.17-3.12
		l-0.92-0.65l-8.79,6.98c1.67,1.59,4.73,4.08,9.18,5.43c5.72,1.76,10.58,0.7,13.6,0c3.07-0.7,6.79-1.57,10.36-4.54
		c4.08-3.38,8.94-10.31,6.59-15.92c-1.4-3.38-4.9-5.02-5.55-5.31c-1.98-0.87-5.6-1.67-9.56-1.3c-1.79,0.17-3.02,0.53-3.89-0.27
		c-1.04-0.94-0.99-2.99-0.39-4.4c1.3-3.04,5.55-3.89,8.02-3.89c3.96,0.02,6.71,2.27,7.63,3.12"/>
	<path class="st0" d="M160.25,49.83l2.34-4.25h-10.26l-13.5,43.11h10.53l8.96-28.84c0,0,3.31-6.13,9.15-5.36
		c5.84,0.77,5.27,5.84,5.27,5.84l-8.57,29.15h10.12l9.54-29.32c0,0,3.12-5.94,9.25-5.27c7.32,1.35,4.08,8.19,4.08,8.19l-8.57,25.92
		h11.01c4.76-15.63,8.09-27.15,9.06-30.6c0.22-0.75,0.68-2.49,0.39-4.69c-0.07-0.6-0.39-2.83-1.76-4.69
		c-2.39-3.21-6.71-3.53-9.25-3.7c-5.94-0.41-10.34,2.2-11.69,3.02c-1.47,0.92-2.58,1.86-3.31,2.54c0,0-1.81-2.34-2.54-3.12
		c-2.73-2.92-7.87-2.61-9.06-2.54C166.31,45.56,161.33,48.82,160.25,49.83"/>
	<polygon class="st0" points="242.19,45.19 253.93,45.19 253.93,72.44 271.71,45.19 282.91,45.19 253.42,88.67 244.97,88.67 	"/>
	<path class="st0" d="M242.58,51.21c-1.67-2.78-4.2-4.01-5.55-4.66c-5.53-2.68-12.56-2.1-17.61,0.87c-1.47,0.85-3.38,1.42-8.28,6.38
		c-2.49,2.54-3.7,5.27-4.32,6.21c-2.34,3.55-2.97,6.96-3.45,9.66c-0.53,2.99-1.11,6.38,0,10.53c0.56,2.1,1.23,4.64,3.45,6.74
		c3.45,3.28,8.19,3.16,10.7,3.12c0.85-0.02,4.69-0.17,9.15-2.42c5.55-2.8,8.45-7,10.53-10c0.99-1.42,4.69-7,6.09-15.22
		C244.03,58.12,244.59,54.59,242.58,51.21z M233.4,61.23c-0.24,3.74-1.04,5.77-1.71,7.58c-1.88,5.1-3.86,7.97-5.87,9.49
		c-1.93,1.47-5.53,3.04-8.45,1.55c-1.96-0.99-2.78-2.97-3.12-3.79c-1.98-5,1.06-10.34,2.75-13.28c1.79-3.12,4.11-7.17,8.45-8.12
		c0.29-0.07,4.54-0.92,6.38,1.38C232.24,56.55,233.62,57.97,233.4,61.23z"/>
	<path class="st0" d="M303.44,52.61c-0.7-7.75-14.49-7.39-14.49-7.39l-6.04,9.25c0,0,4.44-0.02,6.98,0.31
		c5.72,3.04,1.23,8.89,1.23,8.89l-12.8-0.12c-9.23,0.46-11.42,5.27-16.76,11.38c-1.55,4.66-0.39,13.45,7.7,13.77
		c9.56,0.65,12.58-2.25,12.58-2.25s1.91-1.38,2.58-0.7c0.7,0.7-1.55,2.92-1.55,2.92h10.26C293.18,88.67,303.78,58.48,303.44,52.61z
		 M280.33,81.47c-3.12,0.1-6.67,0.58-7.12-3.53c-0.36-4.73,4.76-7.12,4.76-7.12h11.28C289.24,70.8,285.91,81.76,280.33,81.47z"/>
	<g>
		<path class="st0" d="M142.06,93.4v4.37h-0.36V93.4h-1.64v-0.31h3.62v0.31H142.06z"/>
		<path class="st0" d="M148.1,97.75l-1.5-1.93h-1.52v1.93h-0.34v-4.69h1.96c0.27,0,0.48,0.02,0.7,0.1s0.39,0.14,0.53,0.27
			s0.27,0.27,0.34,0.41c0.07,0.17,0.12,0.34,0.12,0.53v0.02c0,0.19-0.02,0.36-0.1,0.53c-0.07,0.14-0.17,0.29-0.29,0.39
			c-0.12,0.12-0.27,0.19-0.43,0.27c-0.17,0.07-0.34,0.12-0.56,0.14l1.55,2h-0.46V97.75z M148.03,94.42c0-0.31-0.12-0.58-0.36-0.75
			c-0.24-0.19-0.56-0.27-0.99-0.27h-1.59v2.1h1.57c0.19,0,0.39-0.02,0.56-0.07c0.17-0.05,0.31-0.12,0.43-0.22s0.22-0.22,0.29-0.34
			C148,94.75,148.03,94.61,148.03,94.42L148.03,94.42z"/>
		<path class="st0" d="M153.48,97.75l-0.6-1.3h-2.75l-0.6,1.3h-0.36l2.17-4.71h0.34l2.17,4.71H153.48z M151.5,93.43l-1.23,2.71h2.46
			L151.5,93.43z"/>
		<path class="st0" d="M158.48,97.75l-3.28-4.15v4.15h-0.34v-4.69h0.34l3.24,4.08v-4.08h0.34v4.69H158.48z"/>
		<path class="st0" d="M163.17,97.07c-0.07,0.17-0.19,0.29-0.31,0.41c-0.14,0.12-0.29,0.19-0.48,0.27c-0.19,0.07-0.39,0.1-0.63,0.1
			c-0.39,0-0.7-0.07-1.01-0.19c-0.29-0.12-0.58-0.31-0.87-0.56l0.22-0.27c0.12,0.12,0.27,0.22,0.39,0.31
			c0.12,0.1,0.27,0.17,0.39,0.22c0.14,0.05,0.27,0.1,0.41,0.12c0.14,0.02,0.31,0.05,0.48,0.05c0.17,0,0.34-0.02,0.48-0.07
			c0.14-0.05,0.27-0.12,0.36-0.19c0.1-0.07,0.19-0.17,0.24-0.29c0.05-0.12,0.1-0.24,0.1-0.36v-0.02c0-0.12-0.02-0.24-0.05-0.34
			c-0.05-0.1-0.1-0.19-0.22-0.27c-0.1-0.07-0.24-0.14-0.41-0.22c-0.17-0.07-0.39-0.12-0.65-0.17c-0.29-0.05-0.53-0.12-0.72-0.19
			c-0.19-0.07-0.36-0.17-0.48-0.27s-0.22-0.22-0.27-0.36c-0.05-0.14-0.1-0.29-0.1-0.48v-0.05c0-0.17,0.05-0.34,0.12-0.48
			c0.07-0.14,0.19-0.27,0.31-0.39c0.14-0.12,0.29-0.19,0.48-0.27c0.19-0.07,0.39-0.1,0.6-0.1c0.34,0,0.63,0.05,0.87,0.14
			c0.24,0.1,0.48,0.24,0.72,0.43l-0.22,0.27c-0.22-0.19-0.46-0.34-0.68-0.41c-0.22-0.07-0.46-0.12-0.72-0.12
			c-0.17,0-0.34,0.02-0.48,0.07c-0.14,0.05-0.27,0.1-0.36,0.19c-0.1,0.07-0.17,0.17-0.24,0.29c-0.05,0.1-0.07,0.22-0.07,0.34v0.02
			c0,0.12,0.02,0.24,0.05,0.34c0.05,0.1,0.1,0.19,0.22,0.27c0.1,0.07,0.24,0.14,0.41,0.22c0.17,0.07,0.41,0.12,0.68,0.19
			c0.56,0.12,0.94,0.27,1.18,0.46s0.36,0.48,0.36,0.82v0.02C163.27,96.73,163.24,96.9,163.17,97.07z"/>
		<path class="st0" d="M164.76,93.4v1.93h2.66v0.31h-2.66v2.13h-0.34v-4.69h3.28v0.31C167.71,93.4,164.76,93.4,164.76,93.4z"/>
		<path class="st0" d="M173,96.35c-0.12,0.29-0.27,0.56-0.48,0.77c-0.19,0.22-0.46,0.41-0.75,0.53c-0.29,0.12-0.6,0.19-0.97,0.19
			c-0.36,0-0.68-0.07-0.97-0.19c-0.29-0.12-0.53-0.31-0.75-0.53c-0.19-0.22-0.36-0.48-0.48-0.77s-0.17-0.6-0.17-0.92v-0.02
			c0-0.31,0.05-0.63,0.17-0.92c0.12-0.29,0.27-0.56,0.48-0.77s0.46-0.39,0.75-0.53c0.29-0.12,0.6-0.19,0.97-0.19
			c0.36,0,0.68,0.07,0.97,0.19c0.29,0.14,0.53,0.31,0.75,0.53c0.22,0.22,0.36,0.48,0.48,0.77c0.12,0.29,0.17,0.6,0.17,0.92
			c0,0,0,0,0,0.02C173.17,95.74,173.12,96.03,173,96.35z M172.81,95.41c0-0.29-0.05-0.56-0.14-0.82c-0.1-0.27-0.24-0.48-0.41-0.68
			c-0.17-0.19-0.39-0.34-0.63-0.46s-0.51-0.17-0.8-0.17s-0.56,0.05-0.8,0.17c-0.24,0.12-0.46,0.27-0.63,0.46
			c-0.17,0.19-0.31,0.41-0.41,0.68c-0.1,0.27-0.14,0.53-0.14,0.82v0.02c0,0.29,0.05,0.56,0.14,0.82c0.1,0.27,0.24,0.48,0.41,0.68
			c0.17,0.19,0.39,0.34,0.63,0.46s0.51,0.17,0.8,0.17s0.56-0.05,0.8-0.17c0.24-0.1,0.46-0.27,0.63-0.46
			c0.17-0.19,0.31-0.41,0.41-0.68S172.81,95.72,172.81,95.41L172.81,95.41z"/>
		<path class="st0" d="M177.73,97.75l-1.5-1.93h-1.52v1.93h-0.34v-4.69h1.96c0.27,0,0.48,0.02,0.7,0.1
			c0.22,0.07,0.39,0.14,0.53,0.27s0.27,0.27,0.34,0.41c0.07,0.17,0.12,0.34,0.12,0.53v0.02c0,0.19-0.02,0.36-0.1,0.53
			c-0.07,0.14-0.17,0.29-0.29,0.39c-0.12,0.12-0.27,0.19-0.43,0.27c-0.17,0.07-0.34,0.12-0.56,0.14l1.55,2h-0.46V97.75z
			 M177.64,94.42c0-0.31-0.12-0.58-0.36-0.75c-0.24-0.19-0.56-0.27-0.99-0.27h-1.59v2.1h1.57c0.19,0,0.39-0.02,0.56-0.07
			c0.17-0.05,0.31-0.12,0.43-0.22s0.22-0.22,0.29-0.34C177.61,94.75,177.64,94.61,177.64,94.42L177.64,94.42z"/>
		<path class="st0" d="M183.26,97.75v-4.06l-1.86,2.71h-0.02l-1.86-2.71v4.06h-0.34v-4.69h0.34l1.88,2.78l1.88-2.78h0.34v4.69
			H183.26z"/>
		<path class="st0" d="M185,97.75v-4.69h3.33v0.31h-2.97v1.86h2.68v0.31h-2.68v1.88h3.02v0.31C188.38,97.75,185,97.75,185,97.75z"/>
		<path class="st0" d="M194.76,95.16c-0.1,0.19-0.24,0.34-0.39,0.46c-0.17,0.12-0.36,0.22-0.58,0.29c-0.22,0.07-0.46,0.1-0.7,0.1
			h-1.26v1.74h-0.34v-4.69h1.69c0.27,0,0.48,0.02,0.7,0.1c0.22,0.07,0.39,0.17,0.56,0.29c0.14,0.12,0.27,0.27,0.36,0.46
			c0.07,0.17,0.12,0.39,0.12,0.6v0.02C194.93,94.75,194.86,94.97,194.76,95.16z M194.57,94.54c0-0.19-0.02-0.36-0.1-0.51
			c-0.07-0.14-0.17-0.27-0.29-0.36c-0.12-0.1-0.27-0.17-0.46-0.22c-0.17-0.05-0.36-0.07-0.58-0.07h-1.33v2.29h1.28
			c0.22,0,0.41-0.02,0.6-0.07c0.17-0.05,0.34-0.14,0.46-0.24c0.12-0.1,0.22-0.22,0.29-0.36C194.54,94.87,194.57,94.71,194.57,94.54
			L194.57,94.54z"/>
		<path class="st0" d="M199.32,97.75l-1.5-1.93h-1.52v1.93h-0.34v-4.69h1.96c0.27,0,0.48,0.02,0.7,0.1
			c0.22,0.07,0.39,0.14,0.53,0.27c0.14,0.12,0.27,0.27,0.34,0.41c0.07,0.17,0.12,0.34,0.12,0.53v0.02c0,0.19-0.02,0.36-0.1,0.53
			c-0.07,0.14-0.17,0.29-0.29,0.39c-0.12,0.12-0.27,0.19-0.43,0.27c-0.17,0.07-0.34,0.12-0.56,0.14l1.55,2h-0.46V97.75z
			 M199.23,94.42c0-0.31-0.12-0.58-0.36-0.75c-0.24-0.19-0.56-0.27-0.99-0.27h-1.59v2.1h1.57c0.19,0,0.39-0.02,0.56-0.07
			c0.17-0.05,0.31-0.12,0.43-0.22c0.12-0.1,0.22-0.22,0.29-0.34C199.2,94.75,199.23,94.61,199.23,94.42L199.23,94.42z"/>
		<path class="st0" d="M205.12,96.35c-0.12,0.29-0.27,0.56-0.48,0.77c-0.19,0.22-0.46,0.41-0.75,0.53c-0.29,0.12-0.6,0.19-0.97,0.19
			c-0.36,0-0.68-0.07-0.97-0.19c-0.29-0.12-0.53-0.31-0.75-0.53c-0.19-0.22-0.36-0.48-0.48-0.77c-0.12-0.29-0.17-0.6-0.17-0.92
			v-0.02c0-0.31,0.05-0.63,0.17-0.92c0.12-0.29,0.27-0.56,0.48-0.77c0.22-0.22,0.46-0.39,0.75-0.53c0.29-0.12,0.6-0.19,0.97-0.19
			c0.36,0,0.68,0.07,0.97,0.19c0.29,0.14,0.53,0.31,0.75,0.53s0.36,0.48,0.48,0.77c0.12,0.29,0.17,0.6,0.17,0.92c0,0,0,0,0,0.02
			C205.29,95.74,205.22,96.03,205.12,96.35z M204.93,95.41c0-0.29-0.05-0.56-0.14-0.82c-0.1-0.27-0.24-0.48-0.41-0.68
			c-0.17-0.19-0.39-0.34-0.63-0.46s-0.51-0.17-0.8-0.17c-0.29,0-0.56,0.05-0.8,0.17s-0.46,0.27-0.63,0.46
			c-0.17,0.19-0.31,0.41-0.41,0.68c-0.1,0.27-0.14,0.53-0.14,0.82v0.02c0,0.29,0.05,0.56,0.14,0.82c0.1,0.27,0.24,0.48,0.41,0.68
			c0.17,0.19,0.39,0.34,0.63,0.46s0.51,0.17,0.8,0.17c0.29,0,0.56-0.05,0.8-0.17c0.24-0.1,0.46-0.27,0.63-0.46
			c0.17-0.19,0.31-0.41,0.41-0.68C204.88,95.99,204.93,95.72,204.93,95.41L204.93,95.41z"/>
		<path class="st0" d="M210.07,97.36c-0.12,0.1-0.27,0.19-0.41,0.27c-0.14,0.07-0.31,0.12-0.48,0.17c-0.17,0.05-0.36,0.07-0.58,0.07
			c-0.34,0-0.65-0.07-0.92-0.19s-0.53-0.29-0.75-0.51s-0.36-0.48-0.48-0.77c-0.12-0.29-0.17-0.6-0.17-0.94v-0.02
			c0-0.34,0.05-0.63,0.17-0.94c0.12-0.29,0.29-0.56,0.48-0.77c0.19-0.22,0.46-0.39,0.75-0.53c0.29-0.12,0.6-0.19,0.94-0.19
			c0.22,0,0.39,0.02,0.58,0.05c0.17,0.02,0.34,0.1,0.48,0.14c0.14,0.07,0.29,0.14,0.41,0.24c0.12,0.1,0.24,0.19,0.36,0.31
			l-0.29,0.27c-0.1-0.1-0.22-0.19-0.31-0.27c-0.12-0.1-0.24-0.14-0.36-0.22c-0.12-0.05-0.27-0.1-0.41-0.14
			c-0.14-0.02-0.31-0.05-0.48-0.05c-0.29,0-0.53,0.05-0.77,0.17c-0.24,0.1-0.46,0.27-0.63,0.43c-0.17,0.19-0.31,0.41-0.41,0.68
			c-0.1,0.27-0.14,0.53-0.14,0.82v0.02c0,0.29,0.05,0.58,0.14,0.82c0.1,0.27,0.24,0.48,0.41,0.68c0.17,0.19,0.39,0.34,0.63,0.46
			s0.51,0.17,0.77,0.17c0.34,0,0.63-0.07,0.89-0.19s0.48-0.31,0.72-0.53l0.24,0.22C210.31,97.14,210.19,97.24,210.07,97.36z"/>
		<path class="st0" d="M211.4,97.75v-4.69h3.33v0.31h-2.99v1.86h2.68v0.31h-2.68v1.88h3.02v0.31
			C214.76,97.75,211.4,97.75,211.4,97.75z"/>
		<path class="st0" d="M218.91,97.07c-0.07,0.17-0.19,0.29-0.31,0.41c-0.14,0.12-0.29,0.19-0.48,0.27c-0.19,0.07-0.39,0.1-0.63,0.1
			c-0.36,0-0.7-0.07-1.01-0.19c-0.29-0.12-0.58-0.31-0.87-0.56l0.22-0.27c0.12,0.12,0.27,0.22,0.39,0.31
			c0.12,0.1,0.27,0.17,0.39,0.22c0.14,0.05,0.27,0.1,0.41,0.12c0.14,0.02,0.31,0.05,0.48,0.05c0.17,0,0.34-0.02,0.48-0.07
			c0.14-0.05,0.27-0.12,0.39-0.19c0.1-0.07,0.19-0.17,0.24-0.29s0.1-0.24,0.1-0.36v-0.02c0-0.12-0.02-0.24-0.05-0.34
			c-0.05-0.1-0.1-0.19-0.22-0.27c-0.1-0.07-0.24-0.14-0.41-0.22c-0.17-0.07-0.39-0.12-0.65-0.17c-0.29-0.05-0.53-0.12-0.72-0.19
			c-0.19-0.07-0.36-0.17-0.48-0.27s-0.22-0.22-0.27-0.36c-0.05-0.14-0.1-0.29-0.1-0.48v-0.05c0-0.17,0.05-0.34,0.12-0.48
			c0.07-0.14,0.17-0.27,0.31-0.39c0.14-0.12,0.29-0.19,0.48-0.27c0.19-0.07,0.39-0.1,0.6-0.1c0.34,0,0.63,0.05,0.87,0.14
			s0.48,0.24,0.72,0.43l-0.22,0.27c-0.22-0.19-0.46-0.34-0.68-0.41c-0.22-0.07-0.46-0.12-0.72-0.12c-0.17,0-0.34,0.02-0.48,0.07
			c-0.14,0.05-0.27,0.1-0.36,0.19c-0.1,0.1-0.17,0.17-0.24,0.29c-0.05,0.1-0.07,0.22-0.07,0.34v0.02c0,0.12,0.02,0.24,0.05,0.34
			c0.05,0.1,0.1,0.19,0.22,0.27c0.1,0.07,0.24,0.14,0.41,0.22c0.17,0.07,0.41,0.12,0.68,0.19c0.56,0.12,0.94,0.27,1.18,0.46
			s0.36,0.48,0.36,0.82v0.02C219.03,96.73,218.98,96.9,218.91,97.07z"/>
		<path class="st0" d="M223.11,97.07c-0.07,0.17-0.19,0.29-0.31,0.41c-0.14,0.12-0.29,0.19-0.48,0.27c-0.19,0.07-0.39,0.1-0.63,0.1
			c-0.36,0-0.7-0.07-1.01-0.19s-0.58-0.31-0.87-0.56l0.22-0.27c0.12,0.12,0.27,0.22,0.39,0.31c0.12,0.1,0.27,0.17,0.39,0.22
			c0.14,0.05,0.27,0.1,0.41,0.12c0.14,0.02,0.31,0.05,0.48,0.05s0.34-0.02,0.48-0.07c0.14-0.05,0.27-0.12,0.39-0.19
			c0.1-0.07,0.19-0.17,0.24-0.29s0.1-0.24,0.1-0.36v-0.02c0-0.12-0.02-0.24-0.05-0.34c-0.05-0.1-0.1-0.19-0.22-0.27
			c-0.1-0.07-0.24-0.14-0.41-0.22c-0.17-0.07-0.39-0.12-0.65-0.17c-0.29-0.05-0.53-0.12-0.72-0.19c-0.19-0.07-0.36-0.17-0.48-0.27
			c-0.12-0.1-0.22-0.22-0.27-0.36c-0.05-0.14-0.1-0.29-0.1-0.48v-0.05c0-0.17,0.05-0.34,0.12-0.48c0.07-0.14,0.17-0.27,0.31-0.39
			c0.14-0.12,0.29-0.19,0.48-0.27c0.19-0.07,0.39-0.1,0.6-0.1c0.34,0,0.63,0.05,0.87,0.14s0.48,0.24,0.72,0.43l-0.22,0.27
			c-0.22-0.19-0.46-0.34-0.68-0.41c-0.22-0.07-0.46-0.12-0.72-0.12c-0.17,0-0.34,0.02-0.48,0.07c-0.14,0.05-0.27,0.1-0.36,0.19
			c-0.1,0.07-0.17,0.17-0.24,0.29c-0.05,0.1-0.07,0.22-0.07,0.34v0.02c0,0.12,0.02,0.24,0.05,0.34s0.1,0.19,0.22,0.27
			c0.1,0.07,0.24,0.14,0.41,0.22c0.17,0.07,0.41,0.12,0.68,0.19c0.56,0.12,0.94,0.27,1.18,0.46s0.36,0.48,0.36,0.82v0.02
			C223.23,96.73,223.19,96.9,223.11,97.07z"/>
		<path class="st0" d="M228.72,96.35c-0.12,0.29-0.27,0.56-0.48,0.77c-0.22,0.22-0.46,0.41-0.75,0.53c-0.29,0.12-0.6,0.19-0.97,0.19
			c-0.36,0-0.68-0.07-0.97-0.19c-0.29-0.12-0.53-0.31-0.75-0.53c-0.22-0.22-0.36-0.48-0.48-0.77s-0.17-0.6-0.17-0.92v-0.02
			c0-0.31,0.05-0.63,0.17-0.92c0.12-0.29,0.27-0.56,0.48-0.77s0.46-0.39,0.75-0.53c0.29-0.12,0.6-0.19,0.97-0.19
			c0.36,0,0.68,0.07,0.97,0.19c0.29,0.14,0.53,0.31,0.75,0.53c0.19,0.22,0.36,0.48,0.48,0.77c0.12,0.29,0.17,0.6,0.17,0.92
			c0,0,0,0,0,0.02C228.89,95.74,228.81,96.03,228.72,96.35z M228.52,95.41c0-0.29-0.05-0.56-0.14-0.82
			c-0.1-0.27-0.24-0.48-0.41-0.68c-0.17-0.19-0.39-0.34-0.63-0.46s-0.51-0.17-0.8-0.17c-0.29,0-0.56,0.05-0.8,0.17
			s-0.46,0.27-0.63,0.46c-0.17,0.19-0.31,0.41-0.41,0.68c-0.1,0.27-0.14,0.53-0.14,0.82v0.02c0,0.29,0.05,0.56,0.14,0.82
			c0.1,0.27,0.24,0.48,0.41,0.68c0.17,0.19,0.39,0.34,0.63,0.46s0.51,0.17,0.8,0.17c0.29,0,0.56-0.05,0.8-0.17
			c0.24-0.1,0.46-0.27,0.63-0.46c0.17-0.19,0.31-0.41,0.41-0.68C228.48,95.99,228.52,95.72,228.52,95.41L228.52,95.41z"/>
		<path class="st0" d="M233.04,97.07c-0.07,0.17-0.19,0.29-0.31,0.41c-0.14,0.12-0.29,0.19-0.48,0.27c-0.19,0.07-0.39,0.1-0.63,0.1
			c-0.36,0-0.7-0.07-1.01-0.19c-0.31-0.12-0.58-0.31-0.87-0.56l0.22-0.27c0.12,0.12,0.27,0.22,0.39,0.31
			c0.12,0.1,0.27,0.17,0.39,0.22c0.14,0.05,0.27,0.1,0.41,0.12c0.14,0.02,0.31,0.05,0.48,0.05c0.17,0,0.34-0.02,0.48-0.07
			c0.14-0.05,0.27-0.12,0.39-0.19c0.1-0.07,0.19-0.17,0.24-0.29s0.1-0.24,0.1-0.36v-0.02c0-0.12-0.02-0.24-0.05-0.34
			c-0.05-0.1-0.1-0.19-0.22-0.27c-0.1-0.07-0.24-0.14-0.41-0.22c-0.17-0.07-0.39-0.12-0.65-0.17c-0.29-0.05-0.53-0.12-0.72-0.19
			c-0.19-0.07-0.36-0.17-0.48-0.27s-0.22-0.22-0.27-0.36c-0.05-0.14-0.1-0.29-0.1-0.48v-0.05c0-0.17,0.05-0.34,0.12-0.48
			c0.07-0.14,0.17-0.27,0.31-0.39c0.14-0.12,0.29-0.19,0.48-0.27c0.19-0.07,0.39-0.1,0.6-0.1c0.34,0,0.63,0.05,0.87,0.14
			s0.48,0.24,0.72,0.43l-0.22,0.27c-0.22-0.19-0.46-0.34-0.68-0.41c-0.22-0.07-0.46-0.12-0.72-0.12c-0.17,0-0.34,0.02-0.48,0.07
			c-0.14,0.05-0.27,0.1-0.36,0.19c-0.1,0.07-0.17,0.17-0.24,0.29c-0.05,0.1-0.07,0.22-0.07,0.34v0.02c0,0.12,0.02,0.24,0.05,0.34
			s0.1,0.19,0.22,0.27c0.1,0.07,0.24,0.14,0.41,0.22c0.17,0.07,0.41,0.12,0.68,0.19c0.56,0.12,0.94,0.27,1.18,0.46
			s0.36,0.48,0.36,0.82v0.02C233.16,96.73,233.14,96.9,233.04,97.07z"/>
		<path class="st0" d="M236.3,97.75v-4.69h3.33v0.31h-2.99v1.86h2.68v0.31h-2.68v1.88h3.02v0.31
			C239.66,97.75,236.3,97.75,236.3,97.75z"/>
		<path class="st0" d="M244.85,97.75v-4.06l-1.86,2.71h-0.02l-1.86-2.71v4.06h-0.34v-4.69h0.34l1.88,2.78l1.88-2.78h0.34v4.69
			H244.85z"/>
		<path class="st0" d="M251.98,97.75l-1.5-1.93h-1.52v1.93h-0.34v-4.69h1.96c0.27,0,0.48,0.02,0.7,0.1
			c0.22,0.07,0.39,0.14,0.53,0.27c0.14,0.12,0.27,0.27,0.34,0.41c0.07,0.17,0.12,0.34,0.12,0.53v0.02c0,0.19-0.02,0.36-0.1,0.53
			c-0.07,0.14-0.17,0.29-0.29,0.39c-0.12,0.12-0.27,0.19-0.43,0.27c-0.17,0.07-0.34,0.12-0.56,0.14l1.55,2h-0.46V97.75z
			 M251.9,94.42c0-0.31-0.12-0.58-0.36-0.75c-0.24-0.19-0.56-0.27-0.99-0.27h-1.59v2.1h1.57c0.19,0,0.39-0.02,0.56-0.07
			c0.17-0.05,0.31-0.12,0.43-0.22c0.12-0.1,0.22-0.22,0.29-0.34C251.85,94.75,251.9,94.61,251.9,94.42L251.9,94.42z"/>
		<path class="st0" d="M253.45,97.75v-4.69h3.33v0.31h-2.99v1.86h2.68v0.31h-2.68v1.88h3.02v0.31
			C256.81,97.75,253.45,97.75,253.45,97.75z"/>
		<path class="st0" d="M260.94,97.07c-0.07,0.17-0.19,0.29-0.31,0.41c-0.14,0.12-0.29,0.19-0.48,0.27c-0.19,0.07-0.39,0.1-0.63,0.1
			c-0.36,0-0.7-0.07-1.01-0.19c-0.29-0.12-0.58-0.31-0.87-0.56l0.22-0.27c0.12,0.12,0.27,0.22,0.39,0.31
			c0.12,0.1,0.27,0.17,0.39,0.22c0.14,0.05,0.27,0.1,0.41,0.12c0.14,0.02,0.31,0.05,0.48,0.05s0.34-0.02,0.48-0.07
			c0.14-0.05,0.27-0.12,0.39-0.19c0.1-0.07,0.19-0.17,0.24-0.29c0.05-0.12,0.1-0.24,0.1-0.36v-0.02c0-0.12-0.02-0.24-0.05-0.34
			c-0.05-0.1-0.1-0.19-0.22-0.27c-0.1-0.07-0.24-0.14-0.41-0.22c-0.17-0.07-0.39-0.12-0.65-0.17c-0.29-0.05-0.53-0.12-0.72-0.19
			c-0.19-0.07-0.36-0.17-0.48-0.27s-0.22-0.22-0.27-0.36c-0.05-0.14-0.1-0.29-0.1-0.48v-0.05c0-0.17,0.05-0.34,0.12-0.48
			c0.07-0.14,0.17-0.27,0.31-0.39s0.29-0.19,0.48-0.27c0.19-0.07,0.39-0.1,0.6-0.1c0.34,0,0.63,0.05,0.87,0.14s0.48,0.24,0.72,0.43
			l-0.22,0.27c-0.22-0.19-0.46-0.34-0.68-0.41c-0.22-0.07-0.46-0.12-0.72-0.12c-0.17,0-0.34,0.02-0.48,0.07
			c-0.14,0.05-0.27,0.1-0.36,0.19c-0.1,0.07-0.17,0.17-0.24,0.29c-0.05,0.1-0.07,0.22-0.07,0.34v0.02c0,0.12,0.02,0.24,0.05,0.34
			s0.1,0.19,0.22,0.27c0.1,0.07,0.24,0.14,0.41,0.22c0.17,0.07,0.41,0.12,0.68,0.19c0.56,0.12,0.94,0.27,1.18,0.46
			s0.36,0.48,0.36,0.82v0.02C261.06,96.73,261.01,96.9,260.94,97.07z"/>
		<path class="st0" d="M265.81,96.66c-0.1,0.27-0.22,0.46-0.39,0.65c-0.17,0.17-0.36,0.31-0.6,0.39c-0.24,0.1-0.48,0.14-0.77,0.14
			s-0.53-0.05-0.77-0.12c-0.24-0.1-0.43-0.22-0.6-0.39c-0.17-0.17-0.31-0.39-0.39-0.63c-0.1-0.24-0.14-0.53-0.14-0.87v-2.73h0.34
			v2.71c0,0.56,0.14,0.99,0.41,1.28c0.27,0.29,0.68,0.46,1.16,0.46c0.24,0,0.46-0.02,0.65-0.1c0.19-0.07,0.36-0.17,0.48-0.31
			c0.14-0.14,0.24-0.31,0.31-0.53s0.12-0.46,0.12-0.75v-2.73h0.34v2.71C265.96,96.11,265.91,96.4,265.81,96.66z"/>
		<path class="st0" d="M267.29,97.75v-4.69h0.34v4.37h2.75v0.31C270.38,97.75,267.29,97.75,267.29,97.75z"/>
		<path class="st0" d="M272.41,93.4v4.37h-0.34V93.4h-1.64v-0.31h3.62v0.31H272.41z"/>
		<path class="st0" d="M278.4,97.75l-0.6-1.3h-2.75l-0.6,1.3h-0.36l2.17-4.71h0.34l2.17,4.71H278.4z M276.42,93.43l-1.23,2.71h2.46
			L276.42,93.43z"/>
		<path class="st0" d="M283.64,96.35c-0.12,0.29-0.29,0.53-0.51,0.75c-0.22,0.22-0.48,0.39-0.8,0.51c-0.31,0.12-0.63,0.17-1.01,0.17
			h-1.55v-4.69h1.55c0.36,0,0.7,0.07,1.01,0.17c0.31,0.12,0.58,0.29,0.8,0.48c0.22,0.22,0.39,0.46,0.51,0.75
			c0.12,0.29,0.17,0.58,0.17,0.92v0.02C283.81,95.74,283.76,96.06,283.64,96.35z M283.45,95.41c0-0.27-0.05-0.53-0.14-0.77
			s-0.24-0.46-0.43-0.65c-0.19-0.19-0.41-0.34-0.68-0.43c-0.27-0.1-0.56-0.17-0.89-0.17h-1.21v4.06h1.21c0.34,0,0.63-0.05,0.89-0.17
			c0.27-0.1,0.48-0.24,0.68-0.43c0.19-0.19,0.34-0.39,0.43-0.63C283.4,95.96,283.45,95.72,283.45,95.41L283.45,95.41z"/>
		<path class="st0" d="M289.31,96.35c-0.12,0.29-0.27,0.56-0.48,0.77c-0.22,0.22-0.46,0.41-0.75,0.53c-0.29,0.12-0.6,0.19-0.97,0.19
			s-0.68-0.07-0.97-0.19c-0.29-0.12-0.53-0.31-0.75-0.53c-0.22-0.22-0.36-0.48-0.48-0.77s-0.17-0.6-0.17-0.92v-0.02
			c0-0.31,0.05-0.63,0.17-0.92c0.12-0.29,0.27-0.56,0.48-0.77c0.22-0.22,0.46-0.39,0.75-0.53c0.29-0.12,0.6-0.19,0.97-0.19
			s0.68,0.07,0.97,0.19c0.29,0.14,0.53,0.31,0.75,0.53c0.19,0.22,0.36,0.48,0.48,0.77c0.12,0.29,0.17,0.6,0.17,0.92c0,0,0,0,0,0.02
			C289.48,95.74,289.44,96.03,289.31,96.35z M289.15,95.41c0-0.29-0.05-0.56-0.14-0.82c-0.1-0.27-0.24-0.48-0.41-0.68
			c-0.17-0.19-0.39-0.34-0.63-0.46s-0.51-0.17-0.8-0.17c-0.29,0-0.56,0.05-0.8,0.17s-0.46,0.27-0.63,0.46s-0.31,0.41-0.41,0.68
			c-0.1,0.27-0.14,0.53-0.14,0.82v0.02c0,0.29,0.05,0.56,0.14,0.82s0.24,0.48,0.41,0.68c0.17,0.19,0.39,0.34,0.63,0.46
			s0.51,0.17,0.8,0.17c0.29,0,0.56-0.05,0.8-0.17c0.24-0.1,0.46-0.27,0.63-0.46c0.17-0.19,0.31-0.41,0.41-0.68
			S289.15,95.72,289.15,95.41L289.15,95.41z"/>
		<path class="st0" d="M293.66,97.07c-0.07,0.17-0.19,0.29-0.31,0.41c-0.14,0.12-0.29,0.19-0.48,0.27c-0.19,0.07-0.39,0.1-0.63,0.1
			c-0.36,0-0.7-0.07-1.01-0.19c-0.29-0.12-0.58-0.31-0.87-0.56l0.22-0.27c0.12,0.12,0.27,0.22,0.39,0.31
			c0.12,0.1,0.27,0.17,0.39,0.22c0.14,0.05,0.27,0.1,0.41,0.12c0.14,0.02,0.31,0.05,0.48,0.05c0.17,0,0.34-0.02,0.48-0.07
			c0.14-0.05,0.27-0.12,0.39-0.19c0.1-0.07,0.19-0.17,0.24-0.29c0.05-0.12,0.1-0.24,0.1-0.36v-0.02c0-0.12-0.02-0.24-0.05-0.34
			c-0.05-0.1-0.1-0.19-0.22-0.27c-0.1-0.07-0.24-0.14-0.41-0.22c-0.17-0.07-0.39-0.12-0.65-0.17c-0.29-0.05-0.53-0.12-0.72-0.19
			c-0.19-0.07-0.36-0.17-0.48-0.27s-0.22-0.22-0.27-0.36c-0.05-0.14-0.1-0.29-0.1-0.48v-0.05c0-0.17,0.05-0.34,0.12-0.48
			c0.07-0.14,0.17-0.27,0.31-0.39s0.29-0.19,0.48-0.27c0.19-0.07,0.39-0.1,0.6-0.1c0.34,0,0.63,0.05,0.87,0.14s0.48,0.24,0.72,0.43
			l-0.22,0.27c-0.22-0.19-0.46-0.34-0.68-0.41c-0.22-0.07-0.46-0.12-0.72-0.12c-0.17,0-0.34,0.02-0.48,0.07
			c-0.14,0.05-0.27,0.1-0.36,0.19s-0.17,0.17-0.24,0.29c-0.05,0.1-0.07,0.22-0.07,0.34v0.02c0,0.12,0.02,0.24,0.05,0.34
			c0.05,0.1,0.1,0.19,0.22,0.27c0.1,0.07,0.24,0.14,0.41,0.22c0.17,0.07,0.41,0.12,0.68,0.19c0.56,0.12,0.94,0.27,1.18,0.46
			c0.24,0.19,0.36,0.48,0.36,0.82v0.02C293.78,96.73,293.76,96.9,293.66,97.07z"/>
	</g>
	<path class="st1" d="M156.67,14.91c1.04,0.02,6.86,0.27,11.25,5.05c5.07,5.53,4.03,12.49,3.89,13.33"/>
	<path class="st1" d="M157.86,8.7c1.71,0.05,8.5,0.43,14.08,5.82c7.41,7.15,6.35,16.98,6.21,18.11"/>
	<path class="st1" d="M161.07,2.73c2.44,0.36,10.19,1.84,16.57,8.62c7.83,8.33,7.7,18.48,7.63,20.5"/>
</g>
</svg>
